<?xml version="1.0" encoding="UTF-8" standalone="no"?>
<!-- Created with Inkscape (http://www.inkscape.org/) -->
<svg xmlns:dc="http://purl.org/dc/elements/1.1/" xmlns:cc="http://web.resource.org/cc/" xmlns:rdf="http://www.w3.org/1999/02/22-rdf-syntax-ns#" xmlns:svg="http://www.w3.org/2000/svg" xmlns="http://www.w3.org/2000/svg" xmlns:sodipodi="http://sodipodi.sourceforge.net/DTD/sodipodi-0.dtd" xmlns:inkscape="http://www.inkscape.org/namespaces/inkscape" version="1.0" width="508.34912" height="285.00851" id="svg1340" sodipodi:version="0.32" inkscape:version="0.44+devel" sodipodi:docname="r5d_Gun.svg" inkscape:output_extension="org.inkscape.output.svg.inkscape" sodipodi:docbase="C:\Documents and Settings\Molumen\Desktop" sodipodi:modified="true">
  <metadata id="metadata6">
    <rdf:RDF>
      <cc:Work rdf:about="">
        <dc:format>image/svg+xml</dc:format>
        <dc:type rdf:resource="http://purl.org/dc/dcmitype/StillImage"/>
      </cc:Work>
    </rdf:RDF>
  </metadata>
  <sodipodi:namedview inkscape:window-height="573" inkscape:window-width="739" inkscape:pageshadow="2" inkscape:pageopacity="0.0" guidetolerance="10.0" gridtolerance="10.0" objecttolerance="10.0" borderopacity="1.0" bordercolor="#666666" pagecolor="#ffffff" id="base" inkscape:zoom="0.35824168" inkscape:cx="372.04724" inkscape:cy="-36.479145" inkscape:window-x="181" inkscape:window-y="204" inkscape:current-layer="svg1340"/>
  <defs id="defs1343"/>
  <path d="M 120.82303,17.21521 L 118.62504,21.611186 L 102.90943,21.611186 L 102.88195,29.441517 C 102.88195,33.215436 99.814616,36.282754 96.040715,36.282754 C 92.266814,36.282772 89.199478,33.215418 89.199478,29.441517 L 89.199478,21.611186 L 69.142839,21.611186 L 69.08789,29.249193 C 69.087872,32.678467 66.307831,35.458509 62.878574,35.458509 C 59.449309,35.458518 56.669259,32.67845 56.669259,29.249193 L 56.669259,21.611186 L 36.55767,21.611186 L 36.55767,30.403137 C 32.161688,30.403146 30.705528,32.601125 30.705528,34.799112 L 30.705528,61.174966 C 30.70553,63.372963 32.161695,65.570942 36.55767,65.570942 L 36.55767,87.550819 C 36.557662,89.748816 38.755658,89.748807 38.755658,89.748807 L 175.77272,89.748807 C 180.65272,89.748798 184.56467,98.477834 184.56467,105.13472 C 184.56466,105.13473 247.48207,105.1347 258.47201,105.13472 C 275.78888,105.13471 279.4628,114.31447 279.4628,119.22932 C 279.46281,132.16851 289.13882,146.89649 307.51462,146.89649 C 311.44756,146.89648 340.62181,146.89649 345.01778,146.89649 C 347.21576,146.8965 353.80973,146.89649 356.00772,153.49045 C 358.2057,160.08443 384.58156,243.60795 384.58156,243.60795 C 384.58155,243.60794 378.25451,245.17261 377.9876,245.80594 L 386.77955,267.78582 C 387.51384,268.23858 470.30309,248.00393 470.30309,248.00393 C 482.39205,244.70696 476.89705,239.21198 472.50107,228.22204 C 460.28818,197.68974 435.13528,131.51058 428.54132,118.32265 C 421.94738,105.13473 442.60576,105.20013 455.1095,104.0632 C 467.62902,102.92484 470.68264,92.737139 467.63803,85.902329 C 458.02558,87.666592 447.49223,89.586833 439.58621,75.599261 C 437.38823,71.203303 435.13528,61.174966 435.13528,61.174966 C 446.12525,45.78906 457.11516,47.987039 463.70912,47.987039 C 467.40376,39.11997 467.49614,35.4895 464.42347,32.408801 C 463.99055,33.980687 462.93758,35.103314 461.73093,36.117905 C 464.66751,39.439654 462.40602,41.330723 459.67032,43.700963 C 455.65604,36.010942 446.761,42.923719 443.76238,44.277935 C 438.92376,44.277926 442.29325,38.790579 440.76763,38.673066 C 438.16781,38.472794 435.05389,40.965048 435.02538,37.931245 C 441.61394,37.501494 441.09855,36.588371 442.38864,34.963961 C 441.50028,34.310227 440.86617,33.429933 440.27308,32.5187 C 439.60355,35.425618 439.15944,34.799112 432.93729,34.799112 L 426.34333,30.403137 L 426.34333,23.809173 L 402.16547,23.809173 L 399.96748,17.21521 L 371.39364,17.21521 L 369.19565,21.611186 L 343.36929,21.611186 C 338.9733,21.611194 334.33007,23.369576 334.33007,29.963539 L 284.82039,29.963539 L 281.27614,21.611186 L 158.18882,21.611186 L 155.99083,19.413198 L 140.60492,19.413198 L 138.40693,17.21521 L 120.82303,17.21521 z M 123.42518,19.589239 L 135.7609,19.589239 L 137.98618,21.611186 L 122.42788,21.611186 L 123.42518,19.589239 z M 377.71285,21.74856 L 395.10443,21.74856 L 397.24747,29.963539 L 381.8066,29.963539 C 381.90029,29.546766 381.94398,27.853313 381.94398,27.408378 C 381.94397,24.729612 380.16296,22.460479 377.71285,21.74856 z M 376.50396,24.083922 C 378.27625,24.083922 379.71851,25.52618 379.71851,27.298479 C 379.71851,28.011665 379.48046,28.66117 379.08659,29.194244 L 374.60819,24.715843 C 375.14192,24.320302 375.7891,24.083922 376.50396,24.083922 z M 373.9488,25.402715 L 378.39972,29.881115 C 377.86907,30.268892 377.21105,30.513036 376.50396,30.513036 C 374.73165,30.513036 373.2894,29.070778 373.2894,27.298479 C 373.28939,26.580607 373.5502,25.937626 373.9488,25.402715 z M 263.85708,25.759888 L 278.4737,25.759888 L 278.74845,45.04723 L 263.85708,45.04723 C 262.13317,45.047239 261.16455,44.431785 261.16455,41.118327 L 261.16455,28.397473 C 261.16455,27.015413 261.46234,25.759888 263.85708,25.759888 z M 341.14383,25.787362 L 371.14636,25.787362 L 371.14636,29.963539 L 338.03917,29.963539 C 338.03916,27.492728 338.25223,25.787362 341.14383,25.787362 z M 117.82827,26.089586 C 164.82481,26.089577 211.84666,26.089586 258.82919,26.089586 C 256.42084,27.693 257.34606,32.581387 257.37302,35.321134 L 117.82827,35.321134 L 117.82827,26.089586 z M 39.167781,26.199485 L 48.729028,26.199485 L 48.729028,28.067775 C 48.729028,31.25578 49.998489,34.15206 52.053484,36.282754 L 39.167781,36.282754 L 39.167781,26.199485 z M 72.384871,26.199485 L 82.028543,26.199485 L 82.028543,28.754646 C 82.028534,31.611995 83.03654,34.235135 84.721078,36.282754 L 69.060415,36.282754 C 71.110153,34.151831 72.384871,31.257046 72.384871,28.067775 L 72.384871,26.199485 z M 105.71186,26.199485 L 111.04198,26.199485 L 111.04198,36.282754 L 102.96438,36.282754 C 104.65482,34.235144 105.68439,31.611986 105.68439,28.754646 L 105.71186,26.199485 z M 450.93332,27.490803 C 449.655,27.568067 448.4432,27.746253 447.30664,27.98535 C 447.30792,28.629915 447.4049,29.359937 447.63634,30.100913 C 448.30496,32.241499 449.72566,33.704734 450.79595,33.37042 C 451.86627,33.036115 452.17891,31.032623 451.51029,28.89202 C 451.35008,28.379001 451.16232,27.911806 450.93332,27.490803 z M 453.37858,27.490803 C 453.20585,28.088357 453.10382,28.785295 453.10383,29.523942 C 453.10386,31.766513 454.01567,33.590219 455.13697,33.590219 C 456.25829,33.59021 457.17012,31.766531 457.17011,29.523942 C 457.17014,28.963288 457.10827,28.416736 457.00526,27.930401 C 455.82421,27.668567 454.60188,27.537928 453.37858,27.490803 z M 444.47673,28.809596 C 442.96202,29.385117 441.85933,30.087998 441.50945,30.787785 C 441.46403,30.878667 441.441,30.951605 441.39955,31.035058 C 441.64902,31.493796 441.97079,31.961053 442.36117,32.408801 C 443.83494,34.099124 445.71967,34.876596 446.56482,34.139716 C 447.41002,33.402827 446.8846,31.434063 445.41088,29.74374 C 445.10629,29.394357 444.80172,29.075385 444.47673,28.809596 z M 460.32972,29.084344 C 459.8295,29.435468 459.33112,29.897195 458.87355,30.458086 C 457.45598,32.19578 457.01558,34.172739 457.88446,34.881537 C 458.75333,35.590326 460.61555,34.778416 462.03316,33.040722 C 462.55587,32.4 462.91929,31.724928 463.15963,31.090008 C 462.34712,30.260118 461.38555,29.606806 460.32972,29.084344 z M 404.858,29.771215 L 417.99098,29.771215 L 420.07907,35.980531 L 338.03917,35.980531 L 338.03917,31.996678 L 404.858,31.996678 L 404.858,29.771215 z M 419.69442,29.771215 L 421.59018,29.771215 L 437.36074,76.505931 C 441.53304,87.723265 453.60518,91.155959 461.97821,89.30921 C 464.16697,93.071136 462.4829,99.099548 450.49372,99.282579 C 448.02763,99.282597 448.56596,97.386815 450.3014,97.386815 C 456.46999,97.386815 457.15893,93.420036 452.88403,90.957701 C 452.88407,90.957701 447.94008,89.814114 443.70743,87.38597 C 439.4748,84.957853 436.18873,79.802499 435.16276,76.450981 L 419.69442,29.771215 z M 289.07899,31.996678 L 334.33007,31.996678 L 334.33007,36.20033 L 289.07899,36.20033 L 289.07899,31.996678 z M 36.585145,33.974867 L 36.585145,42.299746 L 33.810186,51.366445 L 33.810186,36.914676 C 33.498627,34.415607 34.480853,33.974867 36.585145,33.974867 z M 410.18812,37.299324 L 420.46371,37.299324 L 431.2888,70.901062 L 425.07949,70.901062 C 424.92816,69.53889 423.42137,67.246907 420.84836,67.246907 L 410.18812,67.246907 L 410.18812,60.762843 C 410.81556,60.897624 411.47134,60.982642 412.13883,60.982642 C 417.23524,60.982651 421.3704,56.847471 421.37038,51.751093 C 421.37041,46.654724 417.23524,42.519553 412.13883,42.519545 C 411.47137,42.519553 410.81554,42.604571 410.18812,42.739343 L 410.18812,37.299324 z M 367.57463,37.738921 L 371.06394,37.738921 L 371.06394,71.423084 L 367.57463,71.423084 L 367.57463,37.738921 z M 373.42677,37.738921 L 376.91608,37.738921 L 376.91608,71.423084 L 373.42677,71.423084 L 373.42677,37.738921 z M 379.30639,37.738921 L 382.76822,37.738921 L 382.76822,71.423084 L 379.30639,71.423084 L 379.30639,37.738921 z M 385.15853,37.738921 L 388.64784,37.738921 L 388.64784,71.423084 L 385.15853,71.423084 L 385.15853,37.738921 z M 391.03815,37.738921 L 394.49998,37.738921 L 394.49998,71.423084 L 391.03815,71.423084 L 391.03815,37.738921 z M 396.89029,37.738921 L 400.3796,37.738921 L 400.3796,71.423084 L 396.89029,71.423084 L 396.89029,37.738921 z M 402.76991,37.738921 L 406.23174,37.738921 L 406.23174,44.662583 C 404.21364,46.356642 402.93475,48.912032 402.93476,51.751093 C 402.93479,54.590164 404.21362,57.118087 406.23174,58.812129 L 406.23174,71.423084 L 402.76991,71.423084 L 402.76991,37.738921 z M 118.02059,37.876295 L 257.20817,37.876295 C 257.20816,42.450809 256.99144,48.536536 264.13183,48.536536 L 328.99995,48.536536 C 338.17598,48.536545 338.03917,39.362135 338.03917,37.876295 L 365.15685,37.876295 L 365.15685,71.423084 L 181.32264,71.423084 C 179.85742,69.689619 177.38457,67.156394 174.28908,64.691746 L 118.02059,64.691746 L 118.02059,37.876295 z M 289.07899,37.876295 L 334.33007,37.876295 C 334.33006,37.876304 334.7439,44.854915 329.87914,44.854907 L 291.93638,44.854907 C 288.54763,44.854898 289.07899,42.552479 289.07899,37.876295 z M 38.975457,38.205993 L 54.498746,38.205993 C 56.277929,39.275666 58.347185,39.909434 60.570687,39.909434 C 62.79418,39.909443 64.867648,39.275657 66.642628,38.205993 L 86.754217,38.205993 C 88.727632,39.691675 91.182573,40.596305 93.842727,40.596305 C 96.502873,40.596314 98.952416,39.691666 100.93124,38.205993 L 111.23431,38.205993 L 111.23431,64.691746 L 38.975457,64.691746 L 38.975457,38.205993 z M 412.19378,44.277935 C 413.51345,44.277944 414.73948,44.673599 415.76551,45.349454 L 406.75376,54.361204 C 406.0846,53.338559 405.68222,52.101998 405.68225,50.789474 C 405.68229,47.196959 408.60123,44.277935 412.19378,44.277935 z M 417.6338,47.245218 C 418.30176,48.267247 418.7053,49.478295 418.70532,50.789474 C 418.70535,54.382014 415.78628,57.301012 412.19378,57.301012 C 410.86885,57.301021 409.65055,56.910368 408.62205,56.229493 L 417.6338,47.245218 z M 177.86081,71.28571 C 180.00126,72.462978 187.17189,84.235392 187.06488,91.726996 L 187.06488,102.63451 C 187.06488,95.776569 180.96802,87.44092 177.86081,87.44092 L 177.86081,71.28571 z M 341.501,74.527742 L 432.6076,74.527742 C 432.60762,74.527751 433.15692,78.721828 436.37165,82.96252 L 425.90373,77.110377 L 341.501,77.110377 L 341.501,74.527742 z M 183.68548,75.544311 L 271.30277,75.544311 C 267.53878,77.137219 264.87364,80.84584 264.87365,85.187983 C 264.87364,88.270625 266.21589,91.043835 268.33548,92.963364 C 266.67723,91.852361 264.68879,91.204974 262.53829,91.204974 L 189.09802,91.726996 C 189.09801,86.93067 187.32427,81.644624 183.68548,75.544311 z M 330.04399,75.736635 C 334.74311,76.073094 338.45128,79.991482 338.45129,84.77586 C 338.45129,89.560255 334.7431,93.478634 330.04399,93.815085 L 330.04399,91.781946 C 333.61536,91.446902 336.41815,88.434367 336.41816,84.77586 C 336.41815,81.117362 333.61535,78.104826 330.04399,77.769774 L 330.04399,75.736635 z M 110.84966,75.874009 L 110.84966,82.248174 L 52.300758,82.248174 C 70.454036,78.177923 91.485297,76.972124 110.84966,75.874009 z M 117.77332,75.874009 L 174.75615,75.874009 L 174.75615,82.248174 L 117.77332,82.248174 L 117.77332,75.874009 z M 302.34934,77.082903 C 302.42318,77.186164 302.498,77.279851 302.56914,77.385126 L 325.34579,77.385126 L 325.34579,78.758868 L 303.36591,78.758868 C 303.58087,79.168441 303.79505,79.591053 303.97036,80.022711 L 327.15913,80.022711 L 327.15913,81.423928 L 304.46491,81.423928 C 304.58493,81.838715 304.6845,82.258478 304.76713,82.687771 L 329.19227,82.687771 L 329.19227,84.061514 L 304.93198,84.061514 C 304.96996,84.473355 305.01204,84.904214 305.0144,85.325357 L 327.15913,85.325357 L 327.15913,86.726574 L 304.93198,86.726574 C 304.89266,87.153617 304.84311,87.575015 304.76713,87.990417 L 325.34579,87.990417 L 325.34579,89.391634 L 304.46491,89.391634 C 304.34062,89.821077 304.18764,90.243618 304.02531,90.655477 L 322.90053,90.655477 L 322.90053,92.02922 L 303.36591,92.02922 C 303.06614,92.600714 302.72027,93.154071 302.34934,93.67771 L 302.34934,77.082903 z M 275.69874,77.385126 L 275.91854,77.385126 L 300.94813,77.385126 L 300.94813,91.946795 L 275.91854,91.946795 L 275.69874,91.946795 L 275.69874,91.91932 C 271.78464,91.801218 268.63771,88.608509 268.63771,84.66596 C 268.63769,80.723034 271.78413,77.502639 275.69874,77.385126 z M 409.69357,78.951192 L 424.80474,78.951192 L 424.80474,83.182319 L 409.69357,83.182319 L 409.69357,78.951192 z M 341.58343,79.006142 L 408.07256,79.006142 C 398.25148,84.57361 386.91629,87.770618 374.82799,87.770618 C 362.73968,87.770627 351.40453,84.573601 341.58343,79.006142 z M 428.56879,80.792007 C 434.47211,83.395585 447.1143,90.518094 447.11432,90.518103 C 449.67411,91.995977 450.07139,93.650236 446.70219,93.650236 C 428.64542,94.363017 423.87059,104.0632 423.87059,104.0632 C 419.56153,101.53247 412.13156,94.241916 411.28711,87.083747 C 413.13389,88.72531 436.16103,92.898497 428.56879,80.792007 z M 374.49829,93.705185 C 377.75538,93.705203 380.40539,96.355194 380.40539,99.612277 C 380.40538,101.17749 379.78001,102.56709 378.78437,103.62361 L 373.15203,93.870034 C 373.58697,93.767758 374.03227,93.705185 374.49829,93.705185 z M 370.21222,95.546 L 375.87204,105.32705 C 375.43419,105.43078 374.9677,105.49189 374.49829,105.49189 C 371.24122,105.4919 368.61868,102.86936 368.61868,99.612277 C 368.61867,98.041613 369.21038,96.603637 370.21222,95.546 z M 276.16581,95.573475 L 296.11255,95.573475 C 296.84317,95.573484 297.43135,96.161656 297.43135,96.892268 C 297.43135,97.622888 296.84317,98.21106 296.11255,98.21106 L 276.16581,98.21106 C 275.43519,98.211069 274.84702,97.622879 274.84702,96.892268 C 274.84701,96.161665 275.4352,95.573475 276.16581,95.573475 z M 304.87703,95.573475 L 338.78099,95.573475 C 339.51159,95.573484 340.09978,96.161656 340.09978,96.892268 C 340.09978,97.622888 339.5116,98.21106 338.78099,98.21106 L 304.87703,98.21106 C 304.14641,98.211069 303.55824,97.622879 303.55824,96.892268 C 303.55823,96.161665 304.14642,95.573475 304.87703,95.573475 z M 274.59975,104.3929 L 295.59053,104.3929 C 289.86472,107.71053 286.02929,113.89734 286.02929,121.01518 C 286.02928,131.65208 294.59731,140.2201 305.2342,140.2201 L 353.39761,140.19263 L 354.77135,143.57203 L 307.45967,143.57203 C 293.99547,143.57203 283.02209,132.75428 282.81473,119.33922 C 282.33247,113.23997 279.21791,107.87884 274.59975,104.3929 z M 307.15744,104.3929 L 317.10334,104.3929 C 322.62088,112.83929 323.7549,122.8663 321.08719,132.44472 C 325.89594,123.75884 326.76224,113.89994 324.38417,104.3929 L 331.80238,104.3929 C 341.01347,104.39291 348.42466,111.80408 348.42466,121.01518 C 348.42465,130.2263 341.01349,137.63747 331.80238,137.63747 L 307.15744,137.63747 C 297.94633,137.63748 290.50769,130.22629 290.50769,121.01518 C 290.50768,111.80408 297.94634,104.3929 307.15744,104.3929 z M 433.23952,224.21071 C 439.75723,224.11712 446.16208,224.97984 452.27959,226.68345 L 387.76865,242.75623 C 395.95287,234.98005 406.17865,229.13814 417.90855,226.21637 C 423.0404,224.93809 428.17021,224.2835 433.23952,224.21071 z M 461.67598,228.77154 L 467.28085,244.92675 L 461.45619,246.30049 L 455.46667,230.06285 L 461.67598,228.77154 z M 448.90018,231.87619 L 454.50505,248.0314 L 388.45552,263.49974 L 382.43852,248.41605 L 448.90018,231.87619 z " style="fill: rgb(0, 0, 0); fill-opacity: 1; fill-rule: evenodd; stroke: none; stroke-width: 1px; stroke-linecap: butt; stroke-linejoin: miter; stroke-opacity: 1;" id="path9249"/>
</svg>